<?xml version="1.0"?>
<svg xmlns="http://www.w3.org/2000/svg" xmlns:xlink="http://www.w3.org/1999/xlink" xmlns:svgjs="http://svgjs.com/svgjs" version="1.1" width="512" height="512" x="0" y="0" viewBox="0 0 512 512" style="enable-background:new 0 0 512 512" xml:space="preserve" class=""><g><path xmlns="http://www.w3.org/2000/svg" d="m504.499 248.5h-39.098v-100.41c0-4.142-3.357-7.5-7.5-7.5s-7.5 3.358-7.5 7.5v100.41h-16.061v-233.5h16.061v100.41c0 4.142 3.357 7.5 7.5 7.5s7.5-3.358 7.5-7.5v-107.91c0-4.142-3.357-7.5-7.5-7.5h-31.061c-4.143 0-7.5 3.358-7.5 7.5v23.564h-101.215c-4.143 0-7.5 3.358-7.5 7.5v23.566h-85.684c-6.736 1.395-8.816 5.281-6.24 11.66l28.286 42.43-28.286 42.43c-2.576 6.379-.496 10.265 6.24 11.66h123.899c4.143 0 7.5-3.358 7.5-7.5v-23.559h63v109.249h-39.09c-4.143 0-7.5 3.358-7.5 7.5v54.62h-38.279c-4.143 0-7.5 3.358-7.5 7.5s3.357 7.5 7.5 7.5h38.279v171.38h-109.249v-171.38h38.28c4.143 0 7.5-3.358 7.5-7.5s-3.357-7.5-7.5-7.5h-45.78c-4.143 0-7.5 3.358-7.5 7.5v54.629h-116.749c-4.143 0-7.5 3.358-7.5 7.5v54.621h-42.931c-4.143 0-7.5 3.358-7.5 7.5s3.357 7.5 7.5 7.5h42.93v47.13h-109.25v-47.13h33.63c4.143 0 7.5-3.358 7.5-7.5s-3.357-7.5-7.5-7.5h-41.13c-4.143 0-7.5 3.358-7.5 7.5v62.13c0 4.142 3.357 7.5 7.5 7.5l496.998-.002c4.143 0 7.5-3.358 7.5-7.5v-248.498c0-4.142-3.357-7.5-7.5-7.5zm-163.158-93.19h-102.386l23.286-34.93c1.68-2.519 1.68-5.801 0-8.32l-23.286-34.93h71.67v54.621c0 4.142 3.357 7.5 7.5 7.5h23.216zm-15.716-31.059v-78.187h93.716v78.187zm-186.373 263.498h109.249v109.249h-109.249zm357.747 109.249h-109.248l-.001-233.498h109.249z" fill="#fe1c5b" data-original="#000000" style="" class=""/></g></svg>
