<?xml version="1.0"?>
<svg xmlns="http://www.w3.org/2000/svg" xmlns:xlink="http://www.w3.org/1999/xlink" xmlns:svgjs="http://svgjs.com/svgjs" version="1.1" width="512" height="512" x="0" y="0" viewBox="0 0 496.008 496" style="enable-background:new 0 0 512 512" xml:space="preserve" class=""><g><path xmlns="http://www.w3.org/2000/svg" d="m96.007812 184.003906c0-17.648437-14.351562-32-32-32-17.648437 0-32 14.351563-32 32 0 17.648438 14.351563 32 32 32 17.648438 0 32-14.351562 32-32zm-48 0c0-8.824218 7.175782-16 16-16 8.824219 0 16 7.175782 16 16 0 8.824219-7.175781 16-16 16-8.824218 0-16-7.175781-16-16zm0 0" fill="#fe1c5b" data-original="#000000" style="" class=""/><path xmlns="http://www.w3.org/2000/svg" d="m248.007812 272.003906h224c13.230469 0 24-10.769531 24-24v-224c0-13.230468-10.769531-23.99999975-24-23.99999975h-224c-13.230468 0-24 10.76953175-24 23.99999975v114.855469c-5.0625-1.792969-10.433593-2.855469-16-2.855469-14.167968 0-26.878906 6.207032-35.679687 16h-52.984375c-11.085938-19.097656-31.710938-32-55.34375-32-35.289062 0-64 28.710938-64 64 0 25.71875 15.289062 47.886719 37.222656 58.054688l10 95c-8.832031 2.59375-15.757812 10.097656-17.109375 19.554687l-13.050781 91.390625h-1.054688c-8.824218 0-15.9999995 7.175782-15.9999995 16v16c0 8.824219 7.1757815 16 15.9999995 16h160c8.824219 0 16-7.175781 16-16v-16h256c26.472657 0 48-21.527344 48-48s-21.527343-48-48-48h-284.488281l-1.632812-11.398437c-1.460938-10.242188-9.414063-18.28125-19.300781-20.167969l-24.816407-117.847656c.542969-.851563 1.0625-1.714844 1.566407-2.585938h52.984374c8.792969 9.792969 21.503907 16 35.679688 16 5.566406 0 10.9375-1.0625 16-2.855468v18.855468c.007812 13.230469 10.777344 24 24.007812 24zm-8-80v-16h112l.015626 16zm80-176h80v48h-80zm-72 0h56v64h112v-64h56c4.417969 0 8 3.585938 8 8v224c0 4.417969-3.582031 8-8 8h-224c-4.414062 0-8-3.582031-8-8v-28.246094c3.734376-3.335937 6.902344-7.320312 9.472657-11.753906h102.527343c8.824219 0 16-7.175781 16-16v-16c0-8.824218-7.175781-16-16-16h-102.527343c-2.570313-4.441406-5.738281-8.40625-9.472657-11.75v-124.25c0-4.414062 3.585938-8 8-8zm-232 168c0-26.472656 21.527344-48 48-48 26.472657 0 48 21.527344 48 48s-21.527343 48-48 48c-26.472656 0-48-21.527344-48-48zm48 64c15.375 0 29.503907-5.457031 40.550782-14.535156l21.59375 102.535156h-62.945313l-9.359375-88.886718c3.320313.535156 6.695313.886718 10.160156.886718zm112.015626 232h-160.015626v-16h160zm23.984374-64c0-17.648437 14.351563-32 32-32 17.648438 0 32 14.351563 32 32 0 17.648438-14.351562 32-32 32-17.648437 0-32-14.351562-32-32zm168 0c0 17.648438-14.351562 32-32 32-17.648437 0-32-14.351562-32-32 0-17.648437 14.351563-32 32-32 17.648438 0 32 14.351563 32 32zm3.679688-32h40.648438c-7.640626 8.503906-12.328126 19.695313-12.328126 32 0 12.304688 4.6875 23.496094 12.320313 32h-40.640625c7.632812-8.503906 12.320312-19.695312 12.320312-32 0-12.304687-4.6875-23.496094-12.320312-32zm-71.359375 64h-32.640625c7.632812-8.503906 12.320312-19.695312 12.320312-32 0-12.304687-4.6875-23.496094-12.320312-32h32.648438c-7.640626 8.503906-12.328126 19.695313-12.328126 32 0 12.304688 4.6875 23.496094 12.320313 32zm179.679687-32c0 17.648438-14.351562 32-32 32-17.648437 0-32-14.351562-32-32 0-17.648437 14.351563-32 32-32 17.648438 0 32 14.351563 32 32zm-283.679687-32c-7.632813 8.503906-12.320313 19.695313-12.320313 32 0 12.304688 4.6875 23.496094 12.320313 32h-21.375l-9.144531-64zm-37.542969 64h-125.554687l2.289062-16h100.488281v-16h-98.199218l8.160156-57.136718c.550781-3.910157 3.960938-6.863282 7.910156-6.863282h84.25c3.949219 0 7.359375 2.953125 7.910156 6.863282zm-32.882812-248c1.328125-5.128906 2.105468-10.464844 2.105468-16s-.777343-10.871094-2.105468-16h36.90625c-1.777344 5.015625-2.800782 10.382813-2.800782 16 0 5.617188 1.023438 10.984375 2.800782 16zm50.105468-16c0-17.648437 14.351563-32 32-32 9.144532 0 17.617188 3.9375 23.585938 10.457032-4.539062 2.824218-7.585938 7.816406-7.585938 13.542968v16c0 5.726563 3.046876 10.71875 7.585938 13.542969-5.960938 6.519531-14.441406 10.457031-23.585938 10.457031-17.648437 0-32-14.351562-32-32zm0 0" fill="#fe1c5b" data-original="#000000" style="" class=""/><path xmlns="http://www.w3.org/2000/svg" d="m400.007812 224.003906h64v16h-64zm0 0" fill="#fe1c5b" data-original="#000000" style="" class=""/><path xmlns="http://www.w3.org/2000/svg" d="m400.007812 192.003906h64v16h-64zm0 0" fill="#fe1c5b" data-original="#000000" style="" class=""/><path xmlns="http://www.w3.org/2000/svg" d="m224.007812 408.003906h16v16h-16zm0 0" fill="#fe1c5b" data-original="#000000" style="" class=""/><path xmlns="http://www.w3.org/2000/svg" d="m328.007812 408.003906h16v16h-16zm0 0" fill="#fe1c5b" data-original="#000000" style="" class=""/><path xmlns="http://www.w3.org/2000/svg" d="m440.007812 408.003906h16v16h-16zm0 0" fill="#fe1c5b" data-original="#000000" style="" class=""/></g></svg>
