<?xml version="1.0"?>
<svg xmlns="http://www.w3.org/2000/svg" xmlns:xlink="http://www.w3.org/1999/xlink" xmlns:svgjs="http://svgjs.com/svgjs" version="1.1" width="512" height="512" x="0" y="0" viewBox="0 0 64 64" style="enable-background:new 0 0 512 512" xml:space="preserve" class=""><g><g xmlns="http://www.w3.org/2000/svg" id="Outline"><g><path d="M51,21.813a1,1,0,0,0-1,1V39a3,3,0,0,1-3,3H6a2,2,0,0,1-2-2V11A3,3,0,0,1,7,8H47a1,1,0,0,0,0-2H7a5.006,5.006,0,0,0-5,5V40a3.971,3.971,0,0,0,1.08,2.714A2.981,2.981,0,0,0,2,45V59a3,3,0,0,0,3,3H49a3,3,0,0,0,3-3V45a2.992,2.992,0,0,0-1.41-2.534A4.976,4.976,0,0,0,52,39V22.813A1,1,0,0,0,51,21.813ZM49,44a1,1,0,0,1,1,1v3H46V44ZM40,54V50H50v4ZM28,54V50h4v4Zm-6,0V50h4v4Zm-6,0V50h4v4ZM4,54V50H14v4Zm22-6H22V47a1,1,0,0,0-2,0v1H16V44H26Zm8,2h4v4H34Zm10-2H40V44h4Zm-6,0H34V44h4Zm-6,0H28V44h4ZM14,48H10V44h4ZM8,44v4H4V45a1,1,0,0,1,1-1ZM4,59V56H8v4H5A1,1,0,0,1,4,59Zm6-3h4v4H10Zm6,0H38v4H16Zm24,0h4v4H40Zm10,3a1,1,0,0,1-1,1H46V56h4Z" fill="#fe1c5b" data-original="#000000" style="" class=""/><path d="M43,11a1,1,0,0,0-1-1H9a3,3,0,0,0-3,3V37a3,3,0,0,0,3,3H45a3,3,0,0,0,3-3V27.063a1,1,0,0,0-2,0V37a1,1,0,0,1-1,1H9a1,1,0,0,1-1-1V13a1,1,0,0,1,1-1H42A1,1,0,0,0,43,11Z" fill="#fe1c5b" data-original="#000000" style="" class=""/><path d="M62,6a3.971,3.971,0,0,0-1.172-2.828,4.093,4.093,0,0,0-5.656,0l-.693.693L31.152,25.777c-.011.011-.015.025-.026.036a2.212,2.212,0,0,0-.215.337c-.005.015-.017.024-.022.039l-2.828,8.486a1,1,0,0,0,.948,1.316.986.986,0,0,0,.316-.051l8.486-2.828c.013-.005.021-.015.034-.02A.963.963,0,0,0,38,33a1,1,0,0,0,.183-.128c.011-.01.026-.014.037-.025L54.614,15.4a1,1,0,1,0-1.457-1.369l-15.685,16.7-1.393-1.393L38.2,27.213A1,1,0,0,0,36.787,25.8L34.665,27.92l-1.391-1.392L55.15,5.979l1.436,1.435L58.021,8.85,55.9,11.112a1,1,0,1,0,1.458,1.369l2.773-2.952.7-.7A3.971,3.971,0,0,0,62,6ZM59.414,4.586a2,2,0,0,1,0,2.828L56.586,4.586A2.047,2.047,0,0,1,59.414,4.586ZM32.274,28.357l1.683,1.683v0h0l1.684,1.684L30.59,33.41Z" fill="#fe1c5b" data-original="#000000" style="" class=""/><path d="M38,17a1,1,0,0,0,0-2H26a1,1,0,0,0-.581.186l-3.368,2.406L19.5,16.132a1,1,0,0,0-.992,0l-7,4a1,1,0,0,0,0,1.736L14.36,23.5,11.5,25.132a1,1,0,0,0,0,1.736L14.36,28.5,11.5,30.132a1,1,0,0,0,0,1.736l7,4a1,1,0,0,0,.992,0l7-4a1,1,0,0,0,0-1.736L23.64,28.5,26.5,26.868a1,1,0,0,0,0-1.736L23.64,23.5,26.5,21.868a1,1,0,0,0,0-1.736l-2.533-1.448L26.32,17ZM23.984,31,19,33.848,14.016,31l2.359-1.348L18.5,30.868a1,1,0,0,0,.992,0l2.129-1.216Zm0-5L19,28.848,14.016,26l2.359-1.348L18.5,25.868a1,1,0,0,0,.992,0l2.129-1.216Zm0-5L19,23.848,14.016,21,19,18.152l1.259.719-1.84,1.315a1,1,0,0,0,1.162,1.628l2.59-1.85Z" fill="#fe1c5b" data-original="#000000" style="" class=""/><circle cx="11" cy="35" r="1" fill="#fe1c5b" data-original="#000000" style="" class=""/><path d="M43,36a1,1,0,0,0,1-1V32a1,1,0,0,0-2,0v2H40a1,1,0,0,0,0,2Z" fill="#fe1c5b" data-original="#000000" style="" class=""/><path d="M12,17V16h2a1,1,0,0,0,0-2H11a1,1,0,0,0-1,1v2a1,1,0,0,0,2,0Z" fill="#fe1c5b" data-original="#000000" style="" class=""/></g></g></g></svg>
