<?xml version="1.0"?>
<svg xmlns="http://www.w3.org/2000/svg" xmlns:xlink="http://www.w3.org/1999/xlink" xmlns:svgjs="http://svgjs.com/svgjs" version="1.1" width="512" height="512" x="0" y="0" viewBox="0 0 64 64" style="enable-background:new 0 0 512 512" xml:space="preserve" class=""><g><g xmlns="http://www.w3.org/2000/svg" id="Outline"><g><path d="M50,18h8V43a1,1,0,0,0,2,0V17a1,1,0,0,0-1-1H50a1,1,0,0,0,0,2Z" fill="#fe1c5b" data-original="#000000" style="" class=""/><path d="M5,50a1,1,0,0,0,1-1V18h8a1,1,0,0,0,0-2H5a1,1,0,0,0-1,1V49A1,1,0,0,0,5,50Z" fill="#fe1c5b" data-original="#000000" style="" class=""/><path d="M32,4A12.98,12.98,0,0,1,42.427,24.737l-.452-1.962a1,1,0,1,0-1.95.45l.9,3.9a1,1,0,0,0,.973.775.94.94,0,0,0,.175-.015l5.1-.9a1,1,0,0,0-.348-1.97l-2.463.435A14.98,14.98,0,0,0,32,2a1,1,0,0,0,0,2Z" fill="#fe1c5b" data-original="#000000" style="" class=""/><path d="M17.174,8.985l2.467-.435A14.978,14.978,0,0,0,32,32a1,1,0,0,0,0-2A12.976,12.976,0,0,1,21.574,9.267l.451,1.958A1,1,0,0,0,23,12a1.03,1.03,0,0,0,.226-.025,1,1,0,0,0,.75-1.2l-.9-3.9a1,1,0,0,0-1.148-.76l-5.1.9a1,1,0,0,0,.348,1.97Z" fill="#fe1c5b" data-original="#000000" style="" class=""/><path d="M61,52H60V47a1,1,0,0,0-2,0v5H3a1,1,0,0,0-1,1v4a5.006,5.006,0,0,0,5,5H57a5.006,5.006,0,0,0,5-5V53A1,1,0,0,0,61,52Zm-1,5a3,3,0,0,1-3,3H7a3,3,0,0,1-3-3V54H38v2H25a1,1,0,0,0,0,2H39a1,1,0,0,0,1-1V54H60Z" fill="#fe1c5b" data-original="#000000" style="" class=""/><path d="M25,25H35a1,1,0,0,0,.707-.293l4-4A1,1,0,0,0,40,20V10a.971.971,0,0,0-1.006-.99L39,9H29a1,1,0,0,0-.707.293l-4,4A1,1,0,0,0,25,15h9v8H26V18a1,1,0,0,0-2,0v6A1,1,0,0,0,25,25Zm13-5.414-2,2V14.414l2-2ZM29.414,11h7.172l-2,2H27.414Z" fill="#fe1c5b" data-original="#000000" style="" class=""/><path d="M18,50a9.937,9.937,0,0,0,4.652-1.155A2.984,2.984,0,0,0,25,50h5a1,1,0,0,0,0-2H25a.989.989,0,0,1-.668-.267,9.99,9.99,0,0,0-12.212-15.8A3.954,3.954,0,0,1,12,31V29a1,1,0,0,0-2,0v2a5.963,5.963,0,0,0,.505,2.4A9.984,9.984,0,0,0,18,50ZM17,32.069V35H16a3.977,3.977,0,0,1-2.925-1.291A7.958,7.958,0,0,1,17,32.069ZM16,37h1v3a1,1,0,0,0,1,1h5a1,1,0,0,0,0-2H19V37h2a1,1,0,0,0,0-2H19V32.069a7.991,7.991,0,0,1,4.662,13.577A2.992,2.992,0,0,0,21,44H18a1,1,0,0,0,0,2h3a.994.994,0,0,1,.985.927A7.986,7.986,0,0,1,11.664,35.135,5.978,5.978,0,0,0,16,37Z" fill="#fe1c5b" data-original="#000000" style="" class=""/><path d="M33,42a1,1,0,0,0-1,1v6a1,1,0,0,0,1,1h4a1,1,0,0,0,1-1V43a1,1,0,0,0-1-1Zm3,6H34V44h2Z" fill="#fe1c5b" data-original="#000000" style="" class=""/><path d="M45,50a1,1,0,0,0,1-1V39a1,1,0,0,0-1-1H41a1,1,0,0,0-1,1V49a1,1,0,0,0,2,0V40h2v9A1,1,0,0,0,45,50Z" fill="#fe1c5b" data-original="#000000" style="" class=""/><path d="M49,50h4a1,1,0,0,0,1-1V35a1,1,0,0,0-1-1H49a1,1,0,0,0-1,1V49A1,1,0,0,0,49,50Zm1-14h2V48H50Z" fill="#fe1c5b" data-original="#000000" style="" class=""/><path d="M14,23a3,3,0,1,0-3,3A3,3,0,0,0,14,23Zm-4,0a1,1,0,1,1,1,1A1,1,0,0,1,10,23Z" fill="#fe1c5b" data-original="#000000" style="" class=""/><circle cx="51" cy="57" r="1" fill="#fe1c5b" data-original="#000000" style="" class=""/><circle cx="55" cy="57" r="1" fill="#fe1c5b" data-original="#000000" style="" class=""/></g></g></g></svg>
