<?xml version="1.0"?>
<svg xmlns="http://www.w3.org/2000/svg" xmlns:xlink="http://www.w3.org/1999/xlink" xmlns:svgjs="http://svgjs.com/svgjs" version="1.1" width="512" height="512" x="0" y="0" viewBox="0 0 512 512" style="enable-background:new 0 0 512 512" xml:space="preserve" class=""><g><g xmlns="http://www.w3.org/2000/svg"><path d="m491.343 70.986h-18.968c-4.142 0-7.5 3.357-7.5 7.5s3.358 7.5 7.5 7.5h18.968c3.119 0 5.657 2.536 5.657 5.654v39.334h-26.196c-4.142 0-7.5 3.357-7.5 7.5s3.358 7.5 7.5 7.5h26.196v214.957h-56.75c-4.142 0-7.5 3.357-7.5 7.5s3.358 7.5 7.5 7.5h56.75v39.334c0 3.118-2.538 5.654-5.657 5.654h-470.686c-3.119 0-5.657-2.536-5.657-5.654v-39.334h390.743c4.142 0 7.5-3.357 7.5-7.5s-3.358-7.5-7.5-7.5h-390.743v-214.956h26c4.142 0 7.5-3.357 7.5-7.5s-3.358-7.5-7.5-7.5h-26v-39.334c0-3.118 2.538-5.654 5.657-5.654h20.343c4.142 0 7.5-3.357 7.5-7.5s-3.358-7.5-7.5-7.5h-20.343c-11.39-.001-20.657 9.265-20.657 20.654v323.625c0 11.389 9.267 20.654 20.657 20.654h180.015l-10.118 31.086h-21.009c-14.361 0-26.044 11.682-26.044 26.041 0 10.451 8.503 18.953 18.956 18.953h187.089c10.452 0 18.956-8.502 18.956-18.953 0-14.359-11.684-26.041-26.044-26.041h-21.009l-10.118-31.086h180.015c11.39 0 20.657-9.266 20.657-20.654v-323.625c-.003-11.389-9.27-20.655-20.66-20.655zm-185.671 396.02h-48.757c-4.142 0-7.5 3.357-7.5 7.5s3.358 7.5 7.5 7.5h85.541c6.09 0 11.044 4.953 11.044 11.041 0 2.18-1.774 3.953-3.956 3.953h-187.088c-2.181 0-3.956-1.773-3.956-3.953 0-6.088 4.955-11.041 11.044-11.041h52.76c4.142 0 7.5-3.357 7.5-7.5s-3.358-7.5-7.5-7.5h-15.976l10.118-31.086h79.107z" fill="#ffffff" data-original="#000000" style="" class=""/><path d="m71 315.962h60.309c4.142 0 7.5-3.357 7.5-7.5s-3.358-7.5-7.5-7.5h-52.809v-285.962h355v285.962h-266.784c-4.142 0-7.5 3.357-7.5 7.5s3.358 7.5 7.5 7.5h274.284c4.142 0 7.5-3.357 7.5-7.5v-300.962c0-4.143-3.358-7.5-7.5-7.5h-370c-4.142 0-7.5 3.357-7.5 7.5v300.962c0 4.142 3.358 7.5 7.5 7.5z" fill="#ffffff" data-original="#000000" style="" class=""/><path d="m135.876 94.178c1.406 1.407 3.314 2.197 5.303 2.197s3.897-.79 5.303-2.196l31.333-31.333c2.929-2.93 2.929-7.678 0-10.607-2.929-2.928-7.678-2.928-10.606 0l-26.03 26.03-10.363-10.363c-2.928-2.93-7.677-2.929-10.606-.001-2.929 2.93-2.929 7.678 0 10.606z" fill="#ffffff" data-original="#000000" style="" class=""/><path d="m222.512 65.65h163.975c4.142 0 7.5-3.357 7.5-7.5s-3.358-7.5-7.5-7.5h-163.975c-4.142 0-7.5 3.357-7.5 7.5s3.358 7.5 7.5 7.5z" fill="#ffffff" data-original="#000000" style="" class=""/><path d="m222.512 95.767h138.678c4.142 0 7.5-3.357 7.5-7.5s-3.358-7.5-7.5-7.5h-138.678c-4.142 0-7.5 3.357-7.5 7.5s3.358 7.5 7.5 7.5z" fill="#ffffff" data-original="#000000" style="" class=""/><path d="m120.209 163.283 15.667 15.667c1.406 1.407 3.314 2.197 5.303 2.197s3.897-.79 5.303-2.196l31.333-31.333c2.929-2.93 2.929-7.678 0-10.607-2.929-2.928-7.678-2.928-10.606 0l-26.03 26.03-10.363-10.363c-2.928-2.929-7.677-2.93-10.606-.001-2.93 2.929-2.93 7.677-.001 10.606z" fill="#ffffff" data-original="#000000" style="" class=""/><path d="m222.512 150.423h163.975c4.142 0 7.5-3.357 7.5-7.5s-3.358-7.5-7.5-7.5h-163.975c-4.142 0-7.5 3.357-7.5 7.5s3.358 7.5 7.5 7.5z" fill="#ffffff" data-original="#000000" style="" class=""/><path d="m222.512 180.539h138.678c4.142 0 7.5-3.357 7.5-7.5s-3.358-7.5-7.5-7.5h-138.678c-4.142 0-7.5 3.357-7.5 7.5s3.358 7.5 7.5 7.5z" fill="#ffffff" data-original="#000000" style="" class=""/><path d="m120.209 248.056 15.667 15.667c1.406 1.407 3.314 2.197 5.303 2.197s3.897-.79 5.303-2.196l31.333-31.333c2.929-2.93 2.929-7.678 0-10.607-2.929-2.928-7.678-2.928-10.606 0l-26.03 26.03-10.363-10.363c-2.928-2.929-7.677-2.93-10.606-.001-2.93 2.929-2.93 7.677-.001 10.606z" fill="#ffffff" data-original="#000000" style="" class=""/><path d="m222.512 235.195h163.975c4.142 0 7.5-3.357 7.5-7.5s-3.358-7.5-7.5-7.5h-163.975c-4.142 0-7.5 3.357-7.5 7.5s3.358 7.5 7.5 7.5z" fill="#ffffff" data-original="#000000" style="" class=""/><path d="m222.512 265.311h138.678c4.142 0 7.5-3.357 7.5-7.5s-3.358-7.5-7.5-7.5h-138.678c-4.142 0-7.5 3.357-7.5 7.5s3.358 7.5 7.5 7.5z" fill="#ffffff" data-original="#000000" style="" class=""/></g></g></svg>
