<?xml version="1.0"?>
<svg xmlns="http://www.w3.org/2000/svg" xmlns:xlink="http://www.w3.org/1999/xlink" xmlns:svgjs="http://svgjs.com/svgjs" version="1.1" width="512" height="512" x="0" y="0" viewBox="0 0 512 512" style="enable-background:new 0 0 512 512" xml:space="preserve" class=""><g><g xmlns="http://www.w3.org/2000/svg"><path d="m484.767 25.554h-457.533c-15.017 0-27.234 12.217-27.234 27.234v335.533c0 15.017 12.217 27.233 27.234 27.233h22.437c4.142 0 7.5-3.358 7.5-7.5s-3.358-7.5-7.5-7.5h-22.437c-6.746 0-12.234-5.488-12.234-12.233v-278.033h392c4.143 0 7.5-3.358 7.5-7.5s-3.357-7.5-7.5-7.5h-392v-42.5c0-6.746 5.488-12.234 12.234-12.234h457.533c6.745 0 12.233 5.488 12.233 12.234v42.5h-54.67c-4.143 0-7.5 3.358-7.5 7.5s3.357 7.5 7.5 7.5h54.67v278.033c0 6.746-5.488 12.233-12.233 12.233h-22.797c-4.143 0-7.5 3.358-7.5 7.5s3.357 7.5 7.5 7.5h22.797c15.017 0 27.233-12.217 27.233-27.233v-335.533c0-15.017-12.216-27.234-27.233-27.234z" fill="#ffffff" data-original="#000000" style="" class=""/><path d="m41.878 60.432c-4.142 0-7.5 3.358-7.5 7.5s3.358 7.5 7.5 7.5h30.793c4.142 0 7.5-3.358 7.5-7.5s-3.358-7.5-7.5-7.5z" fill="#ffffff" data-original="#000000" style="" class=""/><path d="m107.671 60.432c-4.142 0-7.5 3.358-7.5 7.5s3.358 7.5 7.5 7.5h30.793c4.142 0 7.5-3.358 7.5-7.5s-3.358-7.5-7.5-7.5z" fill="#ffffff" data-original="#000000" style="" class=""/><path d="m173.671 60.432c-4.142 0-7.5 3.358-7.5 7.5s3.358 7.5 7.5 7.5h30.793c4.142 0 7.5-3.358 7.5-7.5s-3.358-7.5-7.5-7.5z" fill="#ffffff" data-original="#000000" style="" class=""/><path d="m432.33 162.965h-140.114c-15.05 0-28.349 7.645-36.216 19.256-7.867-11.611-21.165-19.256-36.216-19.256h-140.113c-4.142 0-7.5 3.358-7.5 7.5v284.086c0 17.587 14.308 31.896 31.896 31.896h303.868c17.587 0 31.896-14.308 31.896-31.896v-191.188c0-4.142-3.357-7.5-7.5-7.5s-7.5 3.358-7.5 7.5v171.868h-132.615c-10.981 0-21.029 4.07-28.716 10.781v-239.332c0-15.834 12.882-28.716 28.716-28.716h132.614v50.492c0 4.142 3.357 7.5 7.5 7.5s7.5-3.358 7.5-7.5v-57.992c0-4.141-3.358-7.499-7.5-7.499zm-345.159 291.586v-4.32h31.492c4.142 0 7.5-3.358 7.5-7.5s-3.358-7.5-7.5-7.5h-31.492v-257.266h132.614c15.834 0 28.716 12.882 28.716 28.716v239.331c-7.687-6.71-17.735-10.781-28.716-10.781h-66.496c-4.142 0-7.5 3.358-7.5 7.5s3.358 7.5 7.5 7.5h66.496c13.24 0 24.416 9.007 27.722 21.216h-143.441c-9.316 0-16.895-7.58-16.895-16.896zm205.045-4.32h132.614v4.32c0 9.316-7.579 16.896-16.896 16.896h-143.44c3.306-12.209 14.482-21.216 27.722-21.216z" fill="#ffffff" data-original="#000000" style="" class=""/><path d="m114.75 226.466h96.422c4.143 0 7.5-3.358 7.5-7.5s-3.357-7.5-7.5-7.5h-96.422c-4.142 0-7.5 3.358-7.5 7.5s3.358 7.5 7.5 7.5z" fill="#ffffff" data-original="#000000" style="" class=""/><path d="m114.75 270.7h96.422c4.143 0 7.5-3.358 7.5-7.5s-3.357-7.5-7.5-7.5h-96.422c-4.142 0-7.5 3.358-7.5 7.5s3.358 7.5 7.5 7.5z" fill="#ffffff" data-original="#000000" style="" class=""/><path d="m114.75 314.934h96.422c4.143 0 7.5-3.358 7.5-7.5s-3.357-7.5-7.5-7.5h-96.422c-4.142 0-7.5 3.358-7.5 7.5s3.358 7.5 7.5 7.5z" fill="#ffffff" data-original="#000000" style="" class=""/><path d="m114.75 359.168h96.422c4.143 0 7.5-3.358 7.5-7.5s-3.357-7.5-7.5-7.5h-96.422c-4.142 0-7.5 3.358-7.5 7.5s3.358 7.5 7.5 7.5z" fill="#ffffff" data-original="#000000" style="" class=""/><path d="m218.672 395.902c0-4.142-3.357-7.5-7.5-7.5h-96.422c-4.142 0-7.5 3.358-7.5 7.5s3.358 7.5 7.5 7.5h96.422c4.143 0 7.5-3.358 7.5-7.5z" fill="#ffffff" data-original="#000000" style="" class=""/><path d="m397.205 211.466h-96.421c-4.143 0-7.5 3.358-7.5 7.5s3.357 7.5 7.5 7.5h96.421c4.143 0 7.5-3.358 7.5-7.5s-3.358-7.5-7.5-7.5z" fill="#ffffff" data-original="#000000" style="" class=""/><path d="m397.205 255.7h-96.421c-4.143 0-7.5 3.358-7.5 7.5s3.357 7.5 7.5 7.5h96.421c4.143 0 7.5-3.358 7.5-7.5s-3.358-7.5-7.5-7.5z" fill="#ffffff" data-original="#000000" style="" class=""/><path d="m397.205 299.934h-96.421c-4.143 0-7.5 3.358-7.5 7.5s3.357 7.5 7.5 7.5h96.421c4.143 0 7.5-3.358 7.5-7.5s-3.358-7.5-7.5-7.5z" fill="#ffffff" data-original="#000000" style="" class=""/><path d="m397.205 344.168h-96.421c-4.143 0-7.5 3.358-7.5 7.5s3.357 7.5 7.5 7.5h96.421c4.143 0 7.5-3.358 7.5-7.5s-3.358-7.5-7.5-7.5z" fill="#ffffff" data-original="#000000" style="" class=""/><path d="m397.205 388.402h-96.421c-4.143 0-7.5 3.358-7.5 7.5s3.357 7.5 7.5 7.5h96.421c4.143 0 7.5-3.358 7.5-7.5s-3.358-7.5-7.5-7.5z" fill="#ffffff" data-original="#000000" style="" class=""/></g></g></svg>
