<?xml version="1.0" encoding="utf-8"?>
<!-- Generator: Adobe Illustrator 24.2.1, SVG Export Plug-In . SVG Version: 6.00 Build 0)  -->
<svg version="1.1" id="Слой_1" xmlns:svgjs="http://svgjs.com/svgjs"
	 xmlns="http://www.w3.org/2000/svg" xmlns:xlink="http://www.w3.org/1999/xlink" x="0px" y="0px" viewBox="0 0 512 512"
	 style="enable-background:new 0 0 512 512;" xml:space="preserve">
<style type="text/css">
	.st0{fill:#ffffff;}
</style>
<g>
	<path class="st0" d="M223.2,512h65.6c81.4,0,147.7-68.9,147.7-153.6V153.6C436.5,68.9,370.2,0,288.8,0h-65.6
		C141.8,0,75.5,68.9,75.5,153.6v204.8C75.5,443.1,141.8,512,223.2,512z M288.8,34.1c63.3,0,114.9,53.6,114.9,119.5v204.8
		c0,65.9-51.5,119.5-114.9,119.5h-65.6c-63.3,0-114.9-53.6-114.9-119.5V153.6c0-65.9,51.5-119.5,114.9-119.5H288.8z"/>
	<path class="st0" d="M256,238.9c9.1,0,16.4-7.6,16.4-17.1V119.5c0-9.4-7.4-17.1-16.4-17.1c-9.1,0-16.4,7.6-16.4,17.1v102.4
		C239.6,231.3,246.9,238.9,256,238.9z"/>
</g>
</svg>
