<?xml version="1.0"?>
<svg xmlns="http://www.w3.org/2000/svg" xmlns:xlink="http://www.w3.org/1999/xlink" xmlns:svgjs="http://svgjs.com/svgjs" version="1.1" width="512" height="512" x="0" y="0" viewBox="0 0 512 512" style="enable-background:new 0 0 512 512" xml:space="preserve" class=""><g><g xmlns="http://www.w3.org/2000/svg"><path d="m496 464h-16v-208h8a8 8 0 0 0 8-8v-24a8 8 0 0 0 -8-8h-104v-136h8a8 8 0 0 0 8-8v-24a8 8 0 0 0 -8-8h-80v-24a8 8 0 0 0 -8-8h-96a8 8 0 0 0 -8 8v24h-80a8 8 0 0 0 -8 8v24a8 8 0 0 0 8 8h8v136h-104a8 8 0 0 0 -8 8v24a8 8 0 0 0 8 8h8v208h-16a8 8 0 0 0 -8 8v24a8 8 0 0 0 8 8h480a8 8 0 0 0 8-8v-24a8 8 0 0 0 -8-8zm-16-232v8h-96v-8zm-16 24v208h-80v-208zm-248-232h80v16h-80zm-88 32h256v8h-256zm176 312h-96a8 8 0 0 0 -8 8v88h-56v-384h224v384h-56v-88a8 8 0 0 0 -8-8zm-8 16v80h-32v-80zm-48 0v80h-32v-80zm-216-152h96v8h-96zm96 24v208h-80v-208zm360 232h-464v-8h464z" fill="#ffffff" data-original="#000000" style="" class=""/><path d="m112 272h-48a8 8 0 0 0 -8 8v64a8 8 0 0 0 8 8h48a8 8 0 0 0 8-8v-64a8 8 0 0 0 -8-8zm-8 64h-32v-48h32z" fill="#ffffff" data-original="#000000" style="" class=""/><path d="m232 352h48a8 8 0 0 0 8-8v-64a8 8 0 0 0 -8-8h-48a8 8 0 0 0 -8 8v64a8 8 0 0 0 8 8zm8-64h32v48h-32z" fill="#ffffff" data-original="#000000" style="" class=""/><path d="m160 352h48a8 8 0 0 0 8-8v-64a8 8 0 0 0 -8-8h-48a8 8 0 0 0 -8 8v64a8 8 0 0 0 8 8zm8-64h32v48h-32z" fill="#ffffff" data-original="#000000" style="" class=""/><path d="m304 352h48a8 8 0 0 0 8-8v-64a8 8 0 0 0 -8-8h-48a8 8 0 0 0 -8 8v64a8 8 0 0 0 8 8zm8-64h32v48h-32z" fill="#ffffff" data-original="#000000" style="" class=""/><path d="m232 264h48a8 8 0 0 0 8-8v-64a8 8 0 0 0 -8-8h-48a8 8 0 0 0 -8 8v64a8 8 0 0 0 8 8zm8-64h32v48h-32z" fill="#ffffff" data-original="#000000" style="" class=""/><path d="m160 264h48a8 8 0 0 0 8-8v-64a8 8 0 0 0 -8-8h-48a8 8 0 0 0 -8 8v64a8 8 0 0 0 8 8zm8-64h32v48h-32z" fill="#ffffff" data-original="#000000" style="" class=""/><path d="m304 264h48a8 8 0 0 0 8-8v-64a8 8 0 0 0 -8-8h-48a8 8 0 0 0 -8 8v64a8 8 0 0 0 8 8zm8-64h32v48h-32z" fill="#ffffff" data-original="#000000" style="" class=""/><path d="m232 176h48a8 8 0 0 0 8-8v-64a8 8 0 0 0 -8-8h-48a8 8 0 0 0 -8 8v64a8 8 0 0 0 8 8zm8-64h32v48h-32z" fill="#ffffff" data-original="#000000" style="" class=""/><path d="m160 176h48a8 8 0 0 0 8-8v-64a8 8 0 0 0 -8-8h-48a8 8 0 0 0 -8 8v64a8 8 0 0 0 8 8zm8-64h32v48h-32z" fill="#ffffff" data-original="#000000" style="" class=""/><path d="m304 176h48a8 8 0 0 0 8-8v-64a8 8 0 0 0 -8-8h-48a8 8 0 0 0 -8 8v64a8 8 0 0 0 8 8zm8-64h32v48h-32z" fill="#ffffff" data-original="#000000" style="" class=""/><path d="m112 360h-48a8 8 0 0 0 -8 8v64a8 8 0 0 0 8 8h48a8 8 0 0 0 8-8v-64a8 8 0 0 0 -8-8zm-8 64h-32v-48h32z" fill="#ffffff" data-original="#000000" style="" class=""/><path d="m400 352h48a8 8 0 0 0 8-8v-64a8 8 0 0 0 -8-8h-48a8 8 0 0 0 -8 8v64a8 8 0 0 0 8 8zm8-64h32v48h-32z" fill="#ffffff" data-original="#000000" style="" class=""/><path d="m400 440h48a8 8 0 0 0 8-8v-64a8 8 0 0 0 -8-8h-48a8 8 0 0 0 -8 8v64a8 8 0 0 0 8 8zm8-64h32v48h-32z" fill="#ffffff" data-original="#000000" style="" class=""/></g></g></svg>
